HIERARCHY
ROOT Hips
{
	OFFSET -3.958830 18.904000 13.208200
	CHANNELS 6 Xposition Yposition Zposition Zrotation Yrotation Xrotation 
	JOINT LHipJoint
	{
		OFFSET 0.000000 0.000000 0.000000
		CHANNELS 3 Zrotation Yrotation Xrotation
		JOINT LeftUpLeg
		{
			OFFSET 1.800000 -1.400000 0.085000
			CHANNELS 3 Zrotation Yrotation Xrotation
			JOINT LeftLeg
			{
				OFFSET 2.215000 -6.000000 0.000000
				CHANNELS 3 Zrotation Yrotation Xrotation
				JOINT LeftFoot
				{
					OFFSET 2.500000 -6.900000 0.000000
					CHANNELS 3 Zrotation Yrotation Xrotation
					JOINT LeftToeBase
					{
						OFFSET 0.200000 -0.500000 1.950000
						CHANNELS 3 Zrotation Yrotation Xrotation
						End Site
						{
							OFFSET 0.000000 0.000000 0.000000
						}
					}
				}
			}
		}
	}
	JOINT RHipJoint
	{
		OFFSET 0.000000 0.000000 0.000000
		CHANNELS 3 Zrotation Yrotation Xrotation
		JOINT RightUpLeg
		{
			OFFSET -1.800000 -1.400000 0.085000
			CHANNELS 3 Zrotation Yrotation Xrotation
			JOINT RightLeg
			{
				OFFSET -2.215000 -6.000000 0.000000
				CHANNELS 3 Zrotation Yrotation Xrotation
				JOINT RightFoot
				{
					OFFSET -2.500000 -6.900000 0.000000
					CHANNELS 3 Zrotation Yrotation Xrotation
					JOINT RightToeBase
					{
						OFFSET -0.200000 -0.500000 1.950000
						CHANNELS 3 Zrotation Yrotation Xrotation
						End Site
						{
							OFFSET 0.000000 0.000000 0.000000
						}
					}
				}
			}
		}
	}
	JOINT LowerBack
	{
		OFFSET 0.000000 0.000000 0.000000
		CHANNELS 3 Zrotation Yrotation Xrotation
		JOINT Spine
		{
			OFFSET -0.087000 1.940000 -0.288900
			CHANNELS 3 Zrotation Yrotation Xrotation
			JOINT Spine1
			{
				OFFSET 0.000000 1.950000 0.060000
				CHANNELS 3 Zrotation Yrotation Xrotation
				JOINT Neck
				{
					OFFSET 0.000000 0.000000 0.000000
					CHANNELS 3 Zrotation Yrotation Xrotation
					JOINT Neck1
					{
						OFFSET 0.000000 1.600000 0.340000
						CHANNELS 3 Zrotation Yrotation Xrotation
						JOINT Head
						{
							OFFSET 0.000000 1.667000 -0.240000
							CHANNELS 3 Zrotation Yrotation Xrotation
							End Site
							{
								OFFSET 0.000000 0.000000 0.000000
							}
						}
					}
				}
				JOINT LeftShoulder
				{
					OFFSET 0.000000 0.000000 0.000000
					CHANNELS 3 Zrotation Yrotation Xrotation
					JOINT LeftArm
					{
						OFFSET 2.700000 1.550000 -0.730000
						CHANNELS 3 Zrotation Yrotation Xrotation
						JOINT LeftForeArm
						{
							OFFSET 5.450000 0.000000 0.000000
							CHANNELS 3 Zrotation Yrotation Xrotation
							JOINT LeftHand
							{
								OFFSET 3.450000 0.000000 0.000000
								CHANNELS 3 Zrotation Yrotation Xrotation
								JOINT LeftHandIndex1
								{
									OFFSET 0.750000 0.000000 0.000000
									CHANNELS 3 Zrotation Yrotation Xrotation
									End Site
									{
										OFFSET 0.000000 0.000000 0.000000
									}
								}
							}
						}
					}
				}
				JOINT RightShoulder
				{
					OFFSET 0.000000 0.000000 0.000000
					CHANNELS 3 Zrotation Yrotation Xrotation
					JOINT RightArm
					{
						OFFSET -2.700000 1.550000 -0.730000
						CHANNELS 3 Zrotation Yrotation Xrotation
						JOINT RightForeArm
						{
							OFFSET -5.450000 0.000000 0.000000
							CHANNELS 3 Zrotation Yrotation Xrotation
							JOINT RightHand
							{
								OFFSET -3.450000 0.000000 0.000000
								CHANNELS 3 Zrotation Yrotation Xrotation
								JOINT RightHandIndex1
								{
									OFFSET -0.750000 0.000000 0.000000
									CHANNELS 3 Zrotation Yrotation Xrotation
									End Site
									{
										OFFSET 0.000000 0.000000 0.000000
									}
								}
							}
						}
					}
				}
			}
		}
	}
}
MOTION
Frames: 8
Frame Time: 0.016667
-5.727540 16.376940 2.539780 12.409252 -19.584168 -25.455518 -15.054469 9.684161 7.382536 42.416116 3.389807 -28.066888 -76.197892 45.962097 31.854545 2.357376 12.824223 0.505179 0.598180 0.513570 0.119190 18.761194 -10.994241 1.116294 -13.908909 0.369517 1.340407 1.886875 -7.244283 30.742978 -0.742820 -5.720926 2.566985 0.235490 0.068700 -0.161940 -4.662278 2.385822 -9.762057 -10.052952 -3.279886 37.067845 -12.900174 7.634070 19.398836 3.543700 -13.628408 -27.959837 -20.454912 -7.520882 33.489087 16.629330 -16.692660 -24.235050 -2.649785 -32.531511 5.072202 -12.367622 5.508083 -25.687393 67.216063 -33.772793 -27.087576 -3.681272 3.519477 0.486220 -0.330970 0.027810 0.354450 2.422171 59.619768 14.091887 -13.634825 -1.705655 -50.215774 -40.639264 47.418550 -14.870342 13.821670 -5.376672 -0.072210 0.349540 -0.233870 0.070870 
-5.765000 16.254680 2.525780 8.952024 -19.116857 -24.000017 -15.028448 9.576674 7.356763 39.814493 2.478105 -29.687305 -68.154986 44.823805 36.030270 2.434412 13.201127 0.387484 0.536620 0.405900 0.123910 18.772568 -10.918245 1.348921 -10.720122 1.882903 -0.721208 4.118101 -8.507502 35.853347 -0.877097 -6.234377 2.395515 0.131560 0.011740 -0.158000 -4.721219 2.710488 -9.908014 -4.776335 -3.704923 39.178896 -13.851422 7.471614 15.690835 4.433216 -13.033599 -27.847438 -22.217887 -8.332827 37.609837 15.797860 -19.231010 -23.438140 -8.358335 -34.136083 5.767012 -10.369492 3.178318 -24.226599 66.347757 -32.643063 -25.237650 -3.653453 3.467022 0.526090 -0.372700 0.057150 0.324360 5.524789 58.460732 13.285256 -11.433415 -0.795769 -45.907875 -42.715622 43.790290 -14.763254 8.803073 -3.537720 -0.057130 0.299110 -0.229980 0.056240 
-5.830850 16.160470 2.524230 7.345169 -18.684268 -23.015361 -15.052173 9.758669 7.156818 36.562797 1.678619 -29.958113 -64.226267 42.674019 36.701102 2.391881 13.378809 0.298233 0.489330 0.323510 0.118040 18.707667 -10.717111 1.585743 -9.326941 3.486204 -2.452076 6.638249 -9.981942 39.791379 -1.006223 -6.799799 2.187420 0.083400 0.003200 -0.131430 -4.557508 2.292782 -9.945469 -3.501046 -3.745262 39.368907 -14.174037 7.561416 15.139387 5.440439 -12.538228 -28.157904 -22.487986 -8.922186 39.420899 14.955550 -20.303980 -23.835050 -10.094555 -34.381520 5.841635 -10.727860 1.647043 -23.922204 65.757225 -29.783169 -23.364188 -3.723197 3.444666 0.559640 -0.375030 0.063350 0.279900 5.056471 58.544130 12.924940 -9.545396 0.609674 -45.624799 -43.499948 39.209423 -13.492842 6.965873 -2.755037 -0.062090 0.296970 -0.169830 0.031260 
-5.886560 16.092570 2.517160 5.409115 -18.272285 -22.098440 -15.049051 9.973274 6.836563 32.941743 0.590327 -29.462281 -60.338536 39.144699 36.068217 2.285587 13.300674 0.277174 0.513160 0.338470 0.152400 18.662911 -10.488766 1.899539 -7.803004 5.004885 -3.909742 9.701693 -11.757193 42.996357 -1.186823 -7.425305 1.969936 0.098510 -0.028020 -0.138860 -4.461842 1.803555 -9.949708 -2.176045 -4.665201 39.532346 -15.051175 7.314197 16.226831 6.630285 -12.197303 -28.987250 -22.486586 -9.492694 39.829330 14.538000 -20.758030 -24.827240 -9.809214 -34.255302 5.466110 -10.639655 1.249613 -24.543366 64.773568 -28.594785 -22.327536 -3.780871 3.472436 0.591350 -0.399340 0.081640 0.272040 2.273451 58.985972 13.299839 -7.591914 2.045333 -47.763173 -44.714259 34.338962 -12.355443 6.054301 -2.380434 -0.070010 0.305820 -0.177150 0.012590 
-5.937340 16.045690 2.530570 2.912097 -17.824006 -20.950593 -14.968476 10.171210 6.417332 28.377440 -0.768739 -29.022088 -53.870336 35.471410 36.834883 2.153695 13.149312 0.302828 0.506540 0.332070 0.141940 18.672172 -10.447157 2.242398 -5.790971 6.013300 -4.821513 11.821548 -12.867303 44.617808 -1.303743 -7.805251 1.857284 0.107740 -0.013250 -0.179980 -4.540344 1.609765 -9.913658 0.943605 -6.182295 39.209378 -16.557228 6.859300 17.207036 7.461710 -12.611980 -29.389084 -23.632581 -9.770900 39.993594 15.188780 -21.915480 -25.632580 -10.209807 -34.570468 5.785980 -10.800525 1.521052 -23.970088 62.328100 -23.899438 -18.950398 -3.803976 3.485624 0.596840 -0.416930 0.064840 0.279840 0.800159 59.296784 13.271179 -6.391334 4.780269 -46.325592 -47.036191 26.509155 -11.047994 4.800817 -1.992855 -0.098900 0.350130 -0.177730 0.021430 
-5.981580 16.019640 2.545120 0.969885 -17.589561 -20.522277 -14.884030 10.557483 5.869097 23.237860 -2.001239 -27.420335 -47.074583 30.844591 36.528562 1.928331 12.550832 0.413512 0.521760 0.321750 0.166870 18.652992 -10.549351 2.556899 -4.022201 6.380069 -4.448416 13.316180 -13.279697 44.354083 -1.373696 -7.890521 1.805311 0.089170 -0.059350 -0.156340 -4.555428 1.386558 -9.750738 3.175573 -6.867915 39.606219 -17.447127 6.581591 17.354153 8.255600 -12.623802 -29.510307 -24.297758 -9.826397 40.894183 15.994850 -22.534710 -27.162990 -10.802111 -34.544239 6.152250 -11.173742 0.941842 -23.114506 60.736700 -20.672664 -16.902115 -3.775283 3.547666 0.618280 -0.457480 0.087810 0.259720 -0.406814 59.056011 12.943639 -5.714961 7.183150 -41.488552 -48.358235 17.695443 -9.608057 3.895581 -1.870657 -0.070060 0.308420 -0.173700 0.013370 
-6.030390 15.999100 2.582180 -1.284230 -17.575197 -19.644911 -14.793196 10.793509 5.447610 19.463385 -2.446293 -26.247156 -42.740682 27.344139 35.094136 1.719737 11.797966 0.618819 0.510110 0.319940 0.137400 18.683562 -10.650904 2.853097 -1.363278 6.671943 -4.300346 13.770471 -13.275019 44.449203 -1.420226 -7.927859 1.810073 0.077710 -0.049810 -0.151170 -4.687015 1.341446 -9.653793 6.525337 -7.653618 38.812301 -18.836151 6.430554 17.131840 8.450918 -12.475769 -29.109704 -24.741934 -9.086569 42.535021 16.182430 -22.814600 -26.913720 -11.906760 -34.874012 6.940032 -11.541938 1.390419 -21.787437 58.736885 -19.023156 -15.355664 -3.747984 3.559851 0.608480 -0.454990 0.089510 0.269270 -0.111221 58.259739 12.294127 -3.940025 10.812445 -35.381123 -48.911103 9.663955 -8.517123 3.220330 -1.872775 -0.057350 0.305810 -0.169040 0.031600 
-6.076950 15.981570 2.621070 -3.189256 -17.421006 -19.006473 -14.727524 11.008183 5.032558 16.159917 -2.720035 -24.869328 -38.530433 25.072373 34.957731 1.604100 11.173060 0.808170 0.498220 0.358290 0.071520 18.702179 -10.717998 3.133248 0.274909 7.147979 -4.468771 15.392635 -13.860822 44.505413 -1.484347 -8.099645 1.782267 0.079520 -0.023100 -0.141100 -4.771258 1.290866 -9.582637 9.164710 -8.157947 38.059890 -19.355927 6.307917 17.699959 8.788983 -13.010034 -29.024842 -25.882456 -8.630388 43.020501 16.408510 -23.364820 -26.655090 -12.764936 -35.086566 7.590327 -12.201886 1.705634 -20.949791 57.009187 -18.022833 -14.392240 -3.743691 3.597076 0.548040 -0.434480 0.088890 0.292930 0.248908 58.433741 11.537476 -2.755115 11.983663 -31.954773 -48.347801 5.236361 -7.713748 2.999445 -1.929077 -0.012920 0.305180 -0.168170 0.086490 
